<?xml version="1.0" encoding="utf-8"?>
<!-- Generator: Adobe Illustrator 19.0.0, SVG Export Plug-In . SVG Version: 6.00 Build 0)  -->
<svg version="1.1" id="레이어_1" xmlns="http://www.w3.org/2000/svg" xmlns:xlink="http://www.w3.org/1999/xlink" x="0px"
	 y="0px" viewBox="0 0 157 54" style="enable-background:new 0 0 157 54;" xml:space="preserve">
<style type="text/css">
	.st0{fill:#5F838C;stroke:#3F909E;stroke-width:7;stroke-linecap:round;stroke-linejoin:round;stroke-miterlimit:10;}
	.st1{fill:#C0F2FF;}
	.st2{fill:none;stroke:#B74162;stroke-width:6;stroke-miterlimit:10;}
	.st3{fill:#FFBFC7;}
	.st4{fill:#FEF4D1;}
</style>
<g id="XMLID_64_">
	<path id="XMLID_65_" class="st0" d="M28.8,40.3v6.7c0,0.9-0.4,1.8-1.2,2.4c-0.8,0.7-1.7,1-2.7,1h-5.7V40.3H6.5
		c-1,0-1.8-0.2-2.3-0.7c-0.5-0.5-0.8-1.2-0.8-2.2V33h40.4v4.4c0,1-0.3,1.7-0.8,2.2c-0.5,0.5-1.3,0.7-2.3,0.7H28.8z M41.6,20.5
		c0,0.9-0.2,1.6-0.6,1.9c-0.4,0.4-1.1,0.6-2,0.6H15.3v1.3h27V29c0,0.9-0.2,1.6-0.7,2s-1.2,0.6-2.1,0.6H8.6c-0.9,0-1.6-0.2-2.1-0.6
		c-0.5-0.4-0.7-1.1-0.7-2V15.7h26.2v-1.2H8.3c-0.9,0-1.6-0.2-2-0.6c-0.4-0.4-0.6-1-0.6-1.9V7.2h36V20.5z"/>
	<path id="XMLID_68_" class="st0" d="M72.2,45.7c0,1.4-0.4,2.5-1.3,3.4c-0.9,0.9-2.1,1.3-3.6,1.3h-3.7V30.5H62
		c-0.4,6.4-1.9,11.2-4.5,14.2c-3.1,3.6-7.7,5.4-13.9,5.4v-7.5c3.1,0,5.4-1.2,7.1-3.6S53,32.8,53,27.8V14.6h-6.7
		c-0.8,0-1.4-0.3-2-0.8c-0.5-0.5-0.8-1.2-0.8-2.1V7.3h18.6v15.4h1.6V7.1h8.6V45.7z M73.5,7.1h8.7v37.7c0,1.4-0.5,2.7-1.6,3.8
		c-1,1.1-2.4,1.7-4,1.7h-3.2V7.1z"/>
	<path id="XMLID_71_" class="st0" d="M84.9,7.3h22.7V12c0,0.9-0.2,1.6-0.7,2c-0.5,0.4-1.2,0.6-2.1,0.6l-10.4,0V43h5.7
		c1.3,0,2.7-0.1,4.2-0.3c1.5-0.2,3.1-0.5,4.7-0.9v7.4c-1.6,0.5-3.2,0.8-4.9,0.9s-3,0.2-4.2,0.2H88.2c-1.1,0-1.9-0.3-2.4-0.8
		c-0.6-0.5-0.8-1.4-0.8-2.4V7.3z M120.5,44.3c0,1.7-0.6,3.2-1.8,4.4c-1.2,1.2-2.6,1.8-4.4,1.8h-3.4V31.7h-7.6
		c-0.8,0-1.4-0.2-1.9-0.7c-0.5-0.5-0.8-1.1-0.8-1.9v-4.9h10.3v-17h9.6V44.3z"/>
</g>
<g id="XMLID_36_">
	<path id="XMLID_37_" class="st1" d="M27.8,39.3v6.7c0,0.9-0.4,1.8-1.2,2.4c-0.8,0.7-1.7,1-2.7,1h-5.7V39.3H5.5
		c-1,0-1.8-0.2-2.3-0.7c-0.5-0.5-0.8-1.2-0.8-2.2V32h40.4v4.4c0,1-0.3,1.7-0.8,2.2c-0.5,0.5-1.3,0.7-2.3,0.7H27.8z M40.6,19.5
		c0,0.9-0.2,1.6-0.6,1.9c-0.4,0.4-1.1,0.6-2,0.6H14.3v1.3h27V28c0,0.9-0.2,1.6-0.7,2s-1.2,0.6-2.1,0.6H7.6c-0.9,0-1.6-0.2-2.1-0.6
		c-0.5-0.4-0.7-1.1-0.7-2V14.7h26.2v-1.2H7.3c-0.9,0-1.6-0.2-2-0.6c-0.4-0.4-0.6-1-0.6-1.9V6.2h36V19.5z"/>
	<path id="XMLID_58_" class="st1" d="M71.2,44.7c0,1.4-0.4,2.5-1.3,3.4c-0.9,0.9-2.1,1.3-3.6,1.3h-3.7V29.5H61
		c-0.4,6.4-1.9,11.2-4.5,14.2c-3.1,3.6-7.7,5.4-13.9,5.4v-7.5c3.1,0,5.4-1.2,7.1-3.6S52,31.8,52,26.8V13.6h-6.7
		c-0.8,0-1.4-0.3-2-0.8c-0.5-0.5-0.8-1.2-0.8-2.1V6.3h18.6v15.4h1.6V6.1h8.6V44.7z M72.5,6.1h8.7v37.7c0,1.4-0.5,2.7-1.6,3.8
		c-1,1.1-2.4,1.7-4,1.7h-3.2V6.1z"/>
	<path id="XMLID_61_" class="st1" d="M83.9,6.3h22.7V11c0,0.9-0.2,1.6-0.7,2c-0.5,0.4-1.2,0.6-2.1,0.6l-10.4,0V42h5.7
		c1.3,0,2.7-0.1,4.2-0.3c1.5-0.2,3.1-0.5,4.7-0.9v7.4c-1.6,0.5-3.2,0.8-4.9,0.9s-3,0.2-4.2,0.2H87.2c-1.1,0-1.9-0.3-2.4-0.8
		c-0.6-0.5-0.8-1.4-0.8-2.4V6.3z M119.5,43.3c0,1.7-0.6,3.2-1.8,4.4c-1.2,1.2-2.6,1.8-4.4,1.8h-3.4V30.7h-7.6
		c-0.8,0-1.4-0.2-1.9-0.7c-0.5-0.5-0.8-1.1-0.8-1.9v-4.9h10.3v-17h9.6V43.3z"/>
</g>
<g id="XMLID_27_">
	<path id="XMLID_33_" class="st2" d="M153,4.8l0-1.3l-1.3-0.2c-8.6-1.4-12.8,2.2-14.4,4.2c-0.6-0.3-1.3-0.5-2-0.6
		c-0.5-0.1-1.1-0.1-1.6-0.2c-0.1-0.6-0.3-1.2-0.9-1.7c-1.4-1.2-12.1-0.7-15.4-0.5l-0.5,0l0,0.5c0,0.2-0.1,6.1,3,7.4
		c0.6,0.2,1.1,0.4,1.6,0.5c0.7,0.1,1.4,0.2,2,0.1c-0.6,1.1-1,2.4-1.2,3.6c-0.9,5.6,2.4,10.8,2.5,11.1c0.2,0.4,0.6,0.7,1.1,0.8
		c0.3,0.1,0.7,0,1-0.2c0.7-0.4,1-1.3,0.6-2c0-0.1-2.9-4.5-2.2-9.2c0.4-2.4,1.8-4.7,3.8-6.1c1.2-0.8,3.1-1.7,5.6-1.3
		c2.5,0.5,3.9,2,4.6,3.2c1.2,2,1.5,4.5,0.9,6.8c-1.3,4.5-6.5,8.5-6.6,8.6c-0.7,0.5-0.8,1.4-0.3,2.1c0.5,0.7,1.4,0.8,2.1,0.3
		c0.2-0.2,6-4.7,7.6-10.1c0.2-0.8,0.4-1.6,0.4-2.5C146.1,17,153,12.6,153,4.8z"/>
	<path id="XMLID_31_" class="st2" d="M142,11.5c-0.6-0.9-1.3-1.7-2.1-2.4c1.2-1.4,4.2-3.6,10-3c-0.6,4.5-4.3,7.4-6.6,8.9
		C143.1,13.8,142.6,12.6,142,11.5z"/>
</g>
<g id="XMLID_28_">
	<path id="XMLID_30_" class="st3" d="M152,3.8l0-1.3l-1.3-0.2c-8.6-1.4-12.8,2.2-14.4,4.2c-0.6-0.3-1.3-0.5-2-0.6
		c-0.5-0.1-1.1-0.1-1.6-0.2c-0.1-0.6-0.3-1.2-0.9-1.7c-1.4-1.2-12.1-0.7-15.4-0.5l-0.5,0l0,0.5c0,0.2-0.1,6.1,3,7.4
		c0.6,0.2,1.1,0.4,1.6,0.5c0.7,0.1,1.4,0.2,2,0.1c-0.6,1.1-1,2.4-1.2,3.6c-0.9,5.6,2.4,10.8,2.5,11.1c0.2,0.4,0.6,0.7,1.1,0.8
		c0.3,0.1,0.7,0,1-0.2c0.7-0.4,1-1.3,0.6-2c0-0.1-2.9-4.5-2.2-9.2c0.4-2.4,1.8-4.7,3.8-6.1c1.2-0.8,3.1-1.7,5.6-1.3
		c2.5,0.5,3.9,2,4.6,3.2c1.2,2,1.5,4.5,0.9,6.8c-1.3,4.5-6.5,8.5-6.6,8.6c-0.7,0.5-0.8,1.4-0.3,2.1c0.5,0.7,1.4,0.8,2.1,0.3
		c0.2-0.2,6-4.7,7.6-10.1c0.2-0.8,0.4-1.6,0.4-2.5C145.1,16,152,11.6,152,3.8z"/>
	<path id="XMLID_29_" class="st4" d="M141,10.5c-0.6-0.9-1.3-1.7-2.1-2.4c1.2-1.4,4.2-3.6,10-3c-0.6,4.5-4.3,7.4-6.6,8.9
		C142.1,12.8,141.6,11.6,141,10.5z"/>
</g>
<g id="XMLID_118_">
</g>
<g id="XMLID_119_">
</g>
<g id="XMLID_120_">
</g>
<g id="XMLID_121_">
</g>
<g id="XMLID_122_">
</g>
<g id="XMLID_123_">
</g>
</svg>
